<svg id="QUANTUM3D_Logo_H_20190318" xmlns="http://www.w3.org/2000/svg" width="112.225" height="22" viewBox="0 0 112.225 22">
  <g id="Group_3027" data-name="Group 3027" transform="translate(0 0)">
    <path id="Path_729" data-name="Path 729" d="M90.555,83.926c-2.111-.784-8.2-3.226-8.2-3.226s-6.151,2.479-8.2,3.245a1.01,1.01,0,0,0-.657.941V97.363a1.107,1.107,0,0,0,.73,1.043l8.123,3.154,8.117-3.136a1.206,1.206,0,0,0,.79-1.128V84.952a1.082,1.082,0,0,0-.706-1.025M90,97.315l-6.368,2.056a4.614,4.614,0,0,1-2.545,0L74.8,97.339V85.018l5.416-1.948a6.647,6.647,0,0,1,4.3,0L90,85.042Z" transform="translate(-73.5 -80.7)" fill="#fff"/>
    <path id="Path_730" data-name="Path 730" d="M92.078,159.672c-.06-.03-6.543-21.415-15.378-17.959a36.538,36.538,0,0,1,14.13,17.959Z" transform="translate(-76.507 -137.678)" fill="#fff"/>
  </g>
  <g id="Group_3028" data-name="Group 3028" transform="translate(21.711 5.361)">
    <path id="Path_731" data-name="Path 731" d="M784.579,175.1H783.9l-4.2,9.884h1.363l1.333-3.142h4.059l1.333,3.142h1.363l-4.191-9.884Zm-1.652,5.524,1.49-3.57,1.5,3.57Z" transform="translate(-758.822 -174.768)" fill="#fff"/>
    <path id="Path_732" data-name="Path 732" d="M652.484,181.466a2.619,2.619,0,0,1-.464,1.9,1.848,1.848,0,0,1-1.429.651,1.882,1.882,0,0,1-1.471-.651,2.623,2.623,0,0,1-.458-1.894V175.2H647.4v6.272a3.556,3.556,0,0,0,1.254,3.142,3.245,3.245,0,0,0,3.836,0,3.552,3.552,0,0,0,1.26-3.142V175.2h-1.26v6.266Z" transform="translate(-634.5 -174.862)" fill="#fff"/>
    <path id="Path_733" data-name="Path 733" d="M443.776,174.738a5.132,5.132,0,1,0-2.014,4.083l1.7,1h2.31l-3.094-1.906a5.127,5.127,0,0,0,1.1-3.172m-4.191,1.345h-2.521l3.51,2.032a3.326,3.326,0,0,1-.416.205,3.892,3.892,0,1,1,2.069-2.069,4.038,4.038,0,0,1-.627,1.019Z" transform="translate(-433.5 -169.6)" fill="#fff"/>
    <path id="Path_734" data-name="Path 734" d="M1645.544,176.8a2.564,2.564,0,0,0,.79-1.857,2.478,2.478,0,0,0-.79-1.894,2.618,2.618,0,0,0-3.407-.03,2.766,2.766,0,0,0-1.043,1.851l-.03.476h1.429l.03-.422a1.277,1.277,0,0,1,1.321-1.291,1.2,1.2,0,0,1,1.236,1.3,1.507,1.507,0,0,1-.229.772,1.439,1.439,0,0,1-1.285.549h-.917v1.224h.929a1.97,1.97,0,0,1,2.093,1.966,1.865,1.865,0,0,1-1.9,1.948,1.925,1.925,0,0,1-1.936-2.008l-.012-.434H1640.4v.452a3.217,3.217,0,0,0,1,2.364,3.626,3.626,0,0,0,2.328.85,3.19,3.19,0,0,0,1.815-5.814" transform="translate(-1567.615 -172.231)" fill="#fff"/>
    <path id="Path_735" data-name="Path 735" d="M1437.544,182.934l-3.835-7.834H1432.4v9.884h1.26v-7.171l3.492,7.171h.766l3.48-7.171v7.171h1.26V175.1h-1.3Z" transform="translate(-1372.159 -174.768)" fill="#fff"/>
    <path id="Path_736" data-name="Path 736" d="M1784.961,175.1H1782v9.884h2.961c3.094,0,4.933-1.851,4.933-4.945s-1.845-4.939-4.933-4.939m-1.707,1.224h1.707c2.37,0,3.679,1.327,3.679,3.739a3.393,3.393,0,0,1-3.679,3.7h-1.707Z" transform="translate(-1700.676 -174.768)" fill="#fff"/>
    <path id="Path_737" data-name="Path 737" d="M1145.2,176.324h2.418v8.66h1.254v-8.66h2.074V175.1H1145.2Z" transform="translate(-1102.279 -174.768)" fill="#fff"/>
    <path id="Path_738" data-name="Path 738" d="M1288.684,181.466a2.62,2.62,0,0,1-.464,1.9,1.848,1.848,0,0,1-1.429.651,1.881,1.881,0,0,1-1.471-.651,2.623,2.623,0,0,1-.458-1.894V175.2h-1.26v6.272a3.556,3.556,0,0,0,1.254,3.142,3.236,3.236,0,0,0,3.83,0,3.552,3.552,0,0,0,1.26-3.142V175.2h-1.26Z" transform="translate(-1232.333 -174.862)" fill="#fff"/>
    <path id="Path_739" data-name="Path 739" d="M977.864,182.693l-5.446-7.593H971.2v9.884h1.26v-7.707l5.524,7.707h1.14V175.1h-1.26Z" transform="translate(-938.773 -174.768)" fill="#fff"/>
    <path id="Path_740" data-name="Path 740" d="M1367.439,392.6h-.639v-.3h1.6v.3h-.639v2.853h-.32Z" transform="translate(-1310.516 -378.87)" fill="#fff"/>
    <path id="Path_741" data-name="Path 741" d="M1404.8,392.3h1.478v.3h-1.158v1.1h1.158v.29h-1.158v1.176h1.158v.289H1404.8Z" transform="translate(-1346.224 -378.87)" fill="#fff"/>
    <path id="Path_742" data-name="Path 742" d="M1443.375,393.577a.99.99,0,0,1-.983,1.08c-.675,0-1.092-.567-1.092-1.628,0-1,.368-1.628,1.092-1.628a1.021,1.021,0,0,1,.983,1.152h-.314c-.006-.41-.169-.85-.651-.85-.549,0-.784.531-.784,1.363,0,.893.332,1.3.784,1.3.482,0,.633-.4.651-.784h.314Z" transform="translate(-1380.522 -378.024)" fill="#fff"/>
    <path id="Path_743" data-name="Path 743" d="M1487.8,395.448V392.3h.32v1.393h1.122V392.3h.32v3.148h-.32v-1.465h-1.122v1.465Z" transform="translate(-1424.218 -378.87)" fill="#fff"/>
    <path id="Path_744" data-name="Path 744" d="M1533.565,394.923V392.3h.29v3.148h-.362l-1.3-2.69v2.69h-.289V392.3h.386Z" transform="translate(-1465.659 -378.87)" fill="#fff"/>
    <path id="Path_745" data-name="Path 745" d="M1577.1,392.928c0-.923.392-1.628,1.146-1.628s1.146.7,1.146,1.628c0,.808-.32,1.628-1.146,1.628-.754.006-1.146-.694-1.146-1.628Zm.326.012c0,.862.314,1.339.82,1.339s.82-.476.82-1.339-.314-1.339-.82-1.339-.82.47-.82,1.339Z" transform="translate(-1508.133 -377.93)" fill="#fff"/>
    <path id="Path_746" data-name="Path 746" d="M1628,392.3h.32v2.859h1v.289H1628Z" transform="translate(-1555.963 -378.87)" fill="#fff"/>
    <path id="Path_747" data-name="Path 747" d="M1656.3,392.928c0-.923.392-1.628,1.146-1.628s1.146.7,1.146,1.628c0,.808-.32,1.628-1.146,1.628-.754.006-1.146-.694-1.146-1.628Zm.326.012c0,.862.307,1.339.82,1.339s.82-.476.82-1.339-.313-1.339-.82-1.339-.82.47-.82,1.339Z" transform="translate(-1582.557 -377.93)" fill="#fff"/>
    <path id="Path_748" data-name="Path 748" d="M1706.8,392.5a1.084,1.084,0,0,0-.139-.482.63.63,0,0,0-.573-.326c-.512,0-.862.458-.862,1.339,0,.935.368,1.339.862,1.339a.638.638,0,0,0,.615-.368,1.546,1.546,0,0,0,.139-.718h-.886v-.289h1.212c0,.139,0,.314-.006.464a1.111,1.111,0,0,1-1.073,1.2c-.808,0-1.188-.688-1.188-1.628,0-.977.458-1.628,1.188-1.628a1.047,1.047,0,0,1,1.037,1.1Z" transform="translate(-1628.226 -378.024)" fill="#fff"/>
    <path id="Path_749" data-name="Path 749" d="M1751.308,394.3l-.808-2h.332l.639,1.7.639-1.7h.332l-.814,2v1.146h-.32Z" transform="translate(-1671.076 -378.87)" fill="#fff"/>
    <rect id="Rectangle_949" data-name="Rectangle 949" width="0.289" height="0.452" transform="translate(81.324 16.126)" fill="#fff"/>
    <path id="Path_750" data-name="Path 750" d="M946.5,393.546c.036.488.326.645.567.645a.571.571,0,0,0,.6-.615c0-.464-.392-.567-.7-.669-.265-.1-.718-.253-.718-.82a.8.8,0,0,1,.832-.887.79.79,0,0,1,.844.8h-.308c-.03-.235-.139-.531-.531-.531a.5.5,0,0,0-.513.561c0,.416.314.513.718.645a.883.883,0,0,1,.706.88.87.87,0,0,1-.911.911.845.845,0,0,1-.886-.923Z" transform="translate(-915.281 -377.836)" fill="#fff"/>
    <rect id="Rectangle_950" data-name="Rectangle 950" width="0.32" height="3.148" transform="translate(33.464 13.43)" fill="#fff"/>
    <path id="Path_751" data-name="Path 751" d="M1008.6,395.448V392.3h.495l.742,2.684.693-2.684h.495v3.148h-.289V392.6l-.742,2.853h-.3l-.8-2.853v2.853Z" transform="translate(-973.917 -378.87)" fill="#fff"/>
    <path id="Path_752" data-name="Path 752" d="M1063.82,392.3v2.3a.6.6,0,0,0,.157.47.585.585,0,0,0,.428.139.621.621,0,0,0,.428-.139.6.6,0,0,0,.157-.47v-2.3h.32v2.322a.825.825,0,0,1-.223.645.924.924,0,0,1-.682.241.906.906,0,0,1-.687-.241.846.846,0,0,1-.217-.645V392.3Z" transform="translate(-1025.507 -378.87)" fill="#fff"/>
    <path id="Path_753" data-name="Path 753" d="M1108.3,392.3h.32v2.859h1v.289H1108.3Z" transform="translate(-1067.605 -378.87)" fill="#fff"/>
    <path id="Path_754" data-name="Path 754" d="M1136.826,395.448h-.326l.9-3.148h.314l.911,3.148h-.326l-.265-.935h-.947Zm.736-2.738-.386,1.514h.778Z" transform="translate(-1094.104 -378.87)" fill="#fff"/>
    <path id="Path_755" data-name="Path 755" d="M1173.739,392.6h-.639v-.3h1.6v.3h-.639v2.853h-.32Z" transform="translate(-1128.497 -378.87)" fill="#fff"/>
    <rect id="Rectangle_951" data-name="Rectangle 951" width="0.32" height="3.148" transform="translate(46.883 13.43)" fill="#fff"/>
    <path id="Path_756" data-name="Path 756" d="M1228.9,392.928c0-.923.392-1.628,1.146-1.628s1.146.7,1.146,1.628c0,.808-.32,1.628-1.146,1.628-.754.006-1.146-.694-1.146-1.628Zm.332.012c0,.862.314,1.339.82,1.339s.82-.476.82-1.339-.314-1.339-.82-1.339-.82.47-.82,1.339Z" transform="translate(-1180.932 -377.93)" fill="#fff"/>
    <path id="Path_757" data-name="Path 757" d="M1281.458,394.923V392.3h.289v3.148h-.356l-1.3-2.69v2.69h-.289V392.3h.38Z" transform="translate(-1228.762 -378.87)" fill="#fff"/>
    <rect id="Rectangle_952" data-name="Rectangle 952" width="0.289" height="0.452" transform="translate(53.661 16.126)" fill="#fff"/>
    <rect id="Rectangle_953" data-name="Rectangle 953" width="0.289" height="0.452" transform="translate(27.952 16.126)" fill="#fff"/>
    <path id="Path_758" data-name="Path 758" d="M603.133,392.6H602.5v-.3h1.592v.3h-.639v2.853h-.32Z" transform="translate(-592.308 -378.87)" fill="#fff"/>
    <path id="Path_759" data-name="Path 759" d="M640.106,392.3h.6c.47,0,.657.078.778.187a.946.946,0,0,1,.326.76,1.133,1.133,0,0,1-.139.573.779.779,0,0,1-.543.362l.627,1.266H641.4l-.706-1.465a.619.619,0,0,0,.109-.006.614.614,0,0,0,.675-.7.682.682,0,0,0-.241-.579.958.958,0,0,0-.549-.109h-.271v2.859h-.32V392.3Z" transform="translate(-627.641 -378.87)" fill="#fff"/>
    <path id="Path_760" data-name="Path 760" d="M676.426,395.448H676.1l.9-3.148h.314l.911,3.148h-.32l-.265-.935h-.947Zm.736-2.738-.386,1.514h.778Z" transform="translate(-661.469 -378.87)" fill="#fff"/>
    <rect id="Rectangle_954" data-name="Rectangle 954" width="0.32" height="3.148" transform="translate(17.35 13.43)" fill="#fff"/>
    <path id="Path_761" data-name="Path 761" d="M743.158,394.923V392.3h.289v3.148h-.356l-1.3-2.69v2.69H741.5V392.3h.38Z" transform="translate(-722.925 -378.87)" fill="#fff"/>
    <rect id="Rectangle_955" data-name="Rectangle 955" width="0.32" height="3.148" transform="translate(21.421 13.43)" fill="#fff"/>
    <path id="Path_762" data-name="Path 762" d="M810.658,394.923V392.3h.289v3.148h-.356l-1.3-2.69v2.69H809V392.3h.38Z" transform="translate(-786.355 -378.87)" fill="#fff"/>
    <path id="Path_763" data-name="Path 763" d="M856.1,392.5a1.083,1.083,0,0,0-.139-.482.63.63,0,0,0-.573-.326c-.513,0-.862.458-.862,1.339,0,.935.368,1.339.862,1.339A.643.643,0,0,0,856,394a1.543,1.543,0,0,0,.139-.718h-.887v-.289h1.212c0,.139,0,.314-.006.464a1.111,1.111,0,0,1-1.073,1.2c-.808,0-1.188-.688-1.188-1.628,0-.977.458-1.628,1.188-1.628a1.047,1.047,0,0,1,1.037,1.1Z" transform="translate(-828.829 -378.024)" fill="#fff"/>
  </g>
  <g id="Group_3029" data-name="Group 3029" transform="translate(111.037 6.362)">
    <path id="Path_764" data-name="Path 764" d="M1915.17,186.2v.09h-.181v.47h-.109v-.47h-.181v-.09Zm.609.561-.018-.332a1.542,1.542,0,0,0-.006-.157h-.006c-.012.048-.03.115-.048.169l-.1.314h-.115l-.1-.32c-.012-.042-.024-.109-.036-.157h-.006a1.347,1.347,0,0,1-.006.157l-.018.332h-.109l.042-.561h.169l.1.271c.012.042.024.084.036.145h0c.012-.054.024-.1.036-.139l.1-.277h.163l.042.561h-.109Z" transform="translate(-1914.7 -186.2)" fill="#fff"/>
  </g>
</svg>
