<svg id="ROKETSAN_Logo" xmlns="http://www.w3.org/2000/svg" width="94.823" height="18" viewBox="0 0 94.823 18">
  <g id="Group_3030" data-name="Group 3030" transform="translate(0 0)">
    <path id="Path_765" data-name="Path 765" d="M593.128,99.607a15.6,15.6,0,0,1,1.992,0v8.418c1.568-1.37,3.15-2.924,4.732-4.35h2.514a2.477,2.477,0,0,1-.509.508c-1.285,1.144-2.627,2.345-3.927,3.489,1.6,2.274,3.347,4.534,4.9,6.794H601.01a2.633,2.633,0,0,1-.579,0c-.141-.042-.367-.466-.523-.678-1.116-1.582-2.316-3.291-3.39-4.816-.494.381-.96.805-1.412,1.229v4.266H593.1V103.35c.014-1.229,0-2.669.028-3.743" transform="translate(-556.346 -99.575)" fill="#fff"/>
    <path id="Path_766" data-name="Path 766" d="M742.232,102.1c.028,1.186.028,2.542,0,3.743h2.006c.042.438,0,.96.014,1.441h-1.977c-.042,1.653-.028,3.686-.028,5.551a5.055,5.055,0,0,0,.1,1.723c.268.636,1.172.508,1.907.424.1.551.184,1.088.3,1.624-1.525.268-3.545.325-4.1-1.045a6.091,6.091,0,0,1-.2-1.907v-6.342c-.438-.057-.975,0-1.455-.028v-1.441h1.441c.056-.833.014-1.78.014-2.655.65-.367,1.314-.734,1.977-1.088" transform="translate(-681.467 -101.743)" fill="#fff"/>
    <path id="Path_767" data-name="Path 767" d="M362.946,106.593c.24-.113.085.353.057.452-1.3,5.155-2.627,10.48-3.884,15.607a2.169,2.169,0,0,1-.918-.565c1.6-5.127,3.15-10.3,4.717-15.438.014-.014,0-.057.028-.057" transform="translate(-354.624 -105.587)" fill="#fff"/>
    <path id="Path_768" data-name="Path 768" d="M355.732,106.8c-1.229,5.1-2.627,10.226-3.9,15.381a3.525,3.525,0,0,1-.833-.72c1.342-4.449,2.91-9.223,4.308-13.771.085-.268.2-.791.339-.862.028-.014.071,0,.085-.028" transform="translate(-348.441 -105.78)" fill="#fff"/>
    <path id="Path_769" data-name="Path 769" d="M371.015,107.621c.24-.085.113.268.071.438-1.285,5.3-2.712,10.777-3.969,16.017a5.848,5.848,0,0,1-1.017-.4c1.638-5.353,3.263-10.72,4.915-16.059" transform="translate(-361.408 -106.474)" fill="#fff"/>
    <path id="Path_770" data-name="Path 770" d="M347.892,108.6h.042c-1.229,4.7-2.5,9.378-3.729,14.1a3.038,3.038,0,0,1-.805-.96c1.243-3.955,2.768-8.234,4.068-12.3.1-.311.155-.805.424-.833" transform="translate(-341.914 -107.325)" fill="#fff"/>
    <path id="Path_771" data-name="Path 771" d="M379.217,109.407c.254-.014.113.212.042.48-1.285,5.282-2.528,10.791-3.814,16a6.605,6.605,0,0,1-.946-.212c1.342-4.689,2.74-9.463,4.1-14.209.2-.678.325-1.4.579-2.02,0-.028,0-.085.042-.042" transform="translate(-368.622 -108.006)" fill="#fff"/>
    <path id="Path_772" data-name="Path 772" d="M387.4,112.4c.056.057.071.028.113.042.127.085-.113.734-.155.96-1.116,5.028-2.3,10.212-3.39,15.184a10.254,10.254,0,0,1-1.172-.071c1.54-5.367,3.051-10.763,4.6-16.116" transform="translate(-375.749 -110.589)" fill="#fff"/>
    <path id="Path_773" data-name="Path 773" d="M393.789,132.69c-.311.057-.664.071-.989.113,1.3-4.845,2.754-10,4.138-14.972.056-.226.127-.678.3-.466.1.127-.1.692-.155.932-1.13,4.774-2.2,9.619-3.291,14.393" transform="translate(-384.337 -114.805)" fill="#fff"/>
    <path id="Path_774" data-name="Path 774" d="M335.891,121.5c-.692,3.093-1.511,6.271-2.246,9.393a5.563,5.563,0,0,1-.268-.862,3.421,3.421,0,0,1-.184-.918,3.951,3.951,0,0,1,.3-.9c.607-1.794,1.186-3.616,1.78-5.424.169-.565.212-1.017.621-1.285" transform="translate(-333.148 -118.403)" fill="#fff"/>
    <path id="Path_775" data-name="Path 775" d="M405.864,124.184q-1.695,6.949-3.347,13.926a5.349,5.349,0,0,1-1.017.282c1.37-4.816,2.782-9.59,4.153-14.393.085.042.127.127.212.184" transform="translate(-391.808 -120.55)" fill="#fff"/>
    <path id="Path_776" data-name="Path 776" d="M472.512,127.422c-.212.579-.452,1.13-.678,1.695a2.572,2.572,0,0,0-2.952.2c-.763.777-.763,2.3-.763,3.87,0,1.6.014,3.291-.014,4.675-.664-.014-1.384.028-2.006-.014V127.1a13.076,13.076,0,0,1,1.822,0c-.014.523.014,1.243-.028,1.582.551-.777,1.1-1.737,2.331-1.836a4.3,4.3,0,0,1,2.288.579" transform="translate(-447.284 -122.983)" fill="#fff"/>
    <path id="Path_777" data-name="Path 777" d="M511.726,126.992a5.73,5.73,0,0,1,4.223,1.285,5.175,5.175,0,0,1,1.695,3.927,5.834,5.834,0,0,1-1.3,4.35,5.486,5.486,0,0,1-3.814,1.667c-3.926.184-6.285-2.373-5.847-6.483a4.831,4.831,0,0,1,2.782-4.209,6.043,6.043,0,0,1,2.26-.537m-2.514,3.136a5.953,5.953,0,0,0,.2,5.254,3.491,3.491,0,0,0,5.226.283,5.475,5.475,0,0,0,.085-6.017,3.357,3.357,0,0,0-2.782-1.144,3.2,3.2,0,0,0-2.726,1.624" transform="translate(-482.091 -123.104)" fill="#fff"/>
    <path id="Path_778" data-name="Path 778" d="M671.231,133.011h-8.785c.127,1.893,1.073,3.234,2.712,3.573a3.189,3.189,0,0,0,3.927-2.133c.678.085,1.37.169,2.062.226a4.634,4.634,0,0,1-4.237,3.446c-3.573.41-6.215-1.342-6.511-4.774-.325-3.842,1.751-6.2,5.071-6.427a5.548,5.548,0,0,1,4.308,1.511,5.738,5.738,0,0,1,1.455,4.576m-5.621-4.59a3.1,3.1,0,0,0-3.008,3.093c2.006-.028,4.633-.028,6.525,0a3.072,3.072,0,0,0-3.517-3.093" transform="translate(-614.11 -123.05)" fill="#fff"/>
    <path id="Path_779" data-name="Path 779" d="M786.822,129.9c-.636.1-1.37.169-1.949.254-.184-1.511-1.737-1.907-3.39-1.723-.876.1-1.907.579-1.695,1.54.155.763,1.144.989,1.907,1.186.848.226,1.681.424,2.415.636,1.568.452,3.192.932,3.164,2.98a3.074,3.074,0,0,1-.89,2.076c-1.073,1.088-3.319,1.525-5.339,1.215a3.933,3.933,0,0,1-3.545-3.376c.664-.071,1.328-.184,1.977-.282a2.519,2.519,0,0,0,1.073,1.794c1.257.791,4.039.607,4.576-.749a1.216,1.216,0,0,0-.4-1.441,5.074,5.074,0,0,0-1.483-.508c-.537-.127-1.1-.24-1.624-.381-1.441-.367-2.867-.706-3.5-1.879a2.943,2.943,0,0,1,.2-2.811,4.389,4.389,0,0,1,3.461-1.54c2.5-.155,4.76.692,5.042,3.008" transform="translate(-714.701 -123.018)" fill="#fff"/>
    <path id="Path_780" data-name="Path 780" d="M861.378,137.729h-2.062a3.8,3.8,0,0,1-.41-1.3,6.951,6.951,0,0,1-4.929,1.511c-1.935-.155-3.5-1.144-3.4-3.192a2.837,2.837,0,0,1,.847-1.921c1.582-1.6,4.944-1.13,7.316-1.935.282-1.85-.819-2.542-2.331-2.655a4.685,4.685,0,0,0-2.4.339,2.74,2.74,0,0,0-1.144,1.681c-.692-.056-1.314-.169-1.949-.226.452-2.33,2.344-3.192,4.816-3.333,2.373-.127,4.8.438,5,2.74.141,1.525.042,3.333.042,4.845a6.406,6.406,0,0,0,.607,3.446m-5.367-4.788a7.184,7.184,0,0,0-2.613.607,1.55,1.55,0,0,0-.593,1.921c.4.862,1.568,1.13,2.655,1.045,2.218-.169,3.559-1.582,3.249-4.167,0-.014,0-.028-.014-.028a11.34,11.34,0,0,1-2.684.621" transform="translate(-777.449 -122.853)" fill="#fff"/>
    <path id="Path_781" data-name="Path 781" d="M945.976,137.925h-1.992c-.014-1.412,0-2.839,0-4.322-.014-1.37.184-3.093-.3-4.011-.777-1.511-3.46-1.3-4.52-.212-.763.805-.763,2.26-.763,3.856v4.7H936.4V127.176a13.073,13.073,0,0,1,1.822,0c-.014.48.028,1.158-.014,1.469.127-.056.2-.212.3-.311a4.326,4.326,0,0,1,3.093-1.412,4.475,4.475,0,0,1,3.644,1.229c.847,1.045.734,2.655.734,4.463Z" transform="translate(-851.158 -123.049)" fill="#fff"/>
    <path id="Path_782" data-name="Path 782" d="M414.628,132.5a2.643,2.643,0,0,1,.17.254c-.9,3.969-1.836,7.924-2.74,11.907a6.943,6.943,0,0,1-1.257.621q1.928-6.377,3.828-12.782" transform="translate(-399.795 -127.85)" fill="#fff"/>
    <path id="Path_783" data-name="Path 783" d="M425.423,143.9c.325.452.071.9-.071,1.568-.452,2.2-.918,4.336-1.412,6.554a5.333,5.333,0,0,1-.24,1.059,3.922,3.922,0,0,1-.96.9c-.1.071-.24.2-.339.184,1.017-3.4,2.02-6.836,3.023-10.268" transform="translate(-409.756 -137.639)" fill="#fff"/>
    <path id="Path_784" data-name="Path 784" d="M438.369,156.9a7.654,7.654,0,0,1-.311,2.98c-.071.367-.127.749-.2,1.116a10.033,10.033,0,0,1-.2,1.116,12.337,12.337,0,0,1-.763,1.285c.424-2.133,1-4.322,1.469-6.5" transform="translate(-422.208 -148.803)" fill="#fff"/>
    <path id="Path_785" data-name="Path 785" d="M340.854,113.3c-.96,4.025-2.048,8.107-3.037,12.175a1.622,1.622,0,0,1-.41-.607,2.419,2.419,0,0,1-.311-.72,6.582,6.582,0,0,1,.41-1.342c.833-2.655,1.667-5.254,2.528-7.924a7.011,7.011,0,0,1,.424-1.3c.1-.127.254-.169.4-.282" transform="translate(-336.501 -111.361)" fill="#fff"/>
    <path id="Path_786" data-name="Path 786" d="M332.883,141.583a7.623,7.623,0,0,1,.989-3.955V137.6a4.115,4.115,0,0,1-.226.946c-.254.989-.551,2.1-.763,3.037" transform="translate(-332.88 -132.229)" fill="#fff"/>
  </g>
</svg>
