<svg id="HTR_Logo" xmlns="http://www.w3.org/2000/svg" width="43.015" height="24" viewBox="0 0 43.015 24">
  <path id="Path_697" data-name="Path 697" d="M304.448,123.288H301.2V119.7h8.327l2.417,3.588H308.7v9.1h-4.249Z" transform="translate(-283.12 -111.146)" fill="#fff"/>
  <g id="Group_3018" data-name="Group 3018" transform="translate(0 0)">
    <path id="Path_698" data-name="Path 698" d="M152.583,37.559h0c.038.028.085.057.132.085a31.341,31.341,0,0,0-43.015,0h4.758a31.308,31.308,0,0,1,38.124-.085" transform="translate(-109.7 -29.1)" fill="#fff"/>
  </g>
  <path id="Path_699" data-name="Path 699" d="M160.1,119.7h4.239v6.033h3.88V119.7h4.239v12.689H168.22v-6.656l-3.88,3.663v2.993H160.1Z" transform="translate(-155.342 -111.146)" fill="#fff"/>
  <g id="Group_3019" data-name="Group 3019" transform="translate(27.371 8.544)">
    <path id="Path_700" data-name="Path 700" d="M410.467,127.984a4.11,4.11,0,0,0,2.5-3.88v-.038a3.989,3.989,0,0,0-1.161-3.012c-.888-.887-2.323-1.454-4.57-1.454H399.6l2.408,3.55h5.117c.982,0,1.614.4,1.614,1.218v.038c0,.784-.614,1.237-1.633,1.237h-2.927l4.39,6.656h4.853Z" transform="translate(-399.6 -119.6)" fill="#fff"/>
  </g>
  <path id="Path_701" data-name="Path 701" d="M160,266h.349v.642H161V266h.359v1.605H161v-.642h-.651v.642H160Z" transform="translate(-155.251 -243.633)" fill="#fff"/>
  <path id="Path_702" data-name="Path 702" d="M178.057,266.844l-.217-.519-.217.519Zm-.368-.944h.321l.689,1.614h-.368l-.151-.359h-.68l-.151.359H177Z" transform="translate(-170.646 -243.543)" fill="#fff"/>
  <path id="Path_703" data-name="Path 703" d="M193.8,266h.387l.415,1.133.425-1.133h.378l-.651,1.624h-.312Z" transform="translate(-185.86 -243.633)" fill="#fff"/>
  <path id="Path_704" data-name="Path 704" d="M213.4,266h1.218v.321h-.859v.321h.755v.312h-.755v.34h.869v.312H213.4Z" transform="translate(-203.609 -243.633)" fill="#fff"/>
  <path id="Path_705" data-name="Path 705" d="M229.7,266h.359v1.284h.793v.321H229.7Z" transform="translate(-218.37 -243.633)" fill="#fff"/>
  <g id="Group_3020" data-name="Group 3020" transform="translate(12.642 22.357)">
    <path id="Path_706" data-name="Path 706" d="M243.6,267.288l.208-.245a.712.712,0,0,0,.482.2c.142,0,.236-.057.236-.151h0c0-.085-.057-.132-.321-.208-.321-.085-.529-.17-.529-.491v-.009a.5.5,0,0,1,.557-.482.911.911,0,0,1,.595.208l-.179.264a.793.793,0,0,0-.415-.16c-.132,0-.208.066-.208.142h0c0,.1.066.142.349.208.321.085.51.2.51.482h0c0,.321-.245.5-.585.5a1.028,1.028,0,0,1-.7-.255" transform="translate(-243.6 -265.9)" fill="#fff"/>
  </g>
  <path id="Path_707" data-name="Path 707" d="M259.467,266.844l-.217-.519-.217.519Zm-.368-.944h.321l.689,1.614h-.368l-.151-.359h-.68l-.151.359H258.4Z" transform="translate(-244.361 -243.543)" fill="#fff"/>
  <path id="Path_708" data-name="Path 708" d="M279.1,266h.33l.746.991V266h.349v1.605h-.3l-.774-1.02v1.02H279.1Z" transform="translate(-263.106 -243.633)" fill="#fff"/>
  <path id="Path_709" data-name="Path 709" d="M304.882,266.33H304.4V266h1.331v.33h-.491v1.275h-.359Z" transform="translate(-286.018 -243.633)" fill="#fff"/>
  <path id="Path_710" data-name="Path 710" d="M321.3,266h1.208v.321h-.859v.321h.765v.312h-.765v.34h.878v.312H321.3Z" transform="translate(-301.322 -243.633)" fill="#fff"/>
  <path id="Path_711" data-name="Path 711" d="M337.6,266h.349v.708L338.6,266h.425l-.651.689.689.916h-.425l-.5-.68-.189.189v.491H337.6Z" transform="translate(-316.083 -243.633)" fill="#fff"/>
  <path id="Path_712" data-name="Path 712" d="M355.3,266h.33l.746.991V266h.349v1.605h-.3l-.774-1.02v1.02H355.3Z" transform="translate(-332.112 -243.633)" fill="#fff"/>
  <g id="Group_3021" data-name="Group 3021" transform="translate(24.935 22.348)">
    <path id="Path_713" data-name="Path 713" d="M375.131,266.631h0a.482.482,0,1,0-.963-.009h0a.482.482,0,0,0,.482.5.469.469,0,0,0,.482-.491m-1.331,0h0a.855.855,0,0,1,1.709-.009h0a.833.833,0,0,1-.859.831.817.817,0,0,1-.85-.821" transform="translate(-373.8 -265.8)" fill="#fff"/>
  </g>
  <path id="Path_714" data-name="Path 714" d="M395.2,266h.349v1.284h.8v.321H395.2Z" transform="translate(-368.245 -243.633)" fill="#fff"/>
  <g id="Group_3022" data-name="Group 3022" transform="translate(28.211 22.348)">
    <path id="Path_715" data-name="Path 715" d="M409.831,266.631h0a.482.482,0,1,0-.963-.009h0a.482.482,0,0,0,.482.5.469.469,0,0,0,.482-.491m-1.331,0h0a.855.855,0,0,1,1.709-.009h0a.833.833,0,0,1-.859.831.817.817,0,0,1-.85-.821" transform="translate(-408.5 -265.8)" fill="#fff"/>
    <path id="Path_716" data-name="Path 716" d="M427.4,267.388l.217-.245a.388.388,0,0,0,.293.16c.132,0,.217-.076.217-.264V266h.359v1.048a.58.58,0,0,1-.151.425.588.588,0,0,1-.415.151.622.622,0,0,1-.519-.236" transform="translate(-425.616 -265.981)" fill="#fff"/>
  </g>
  <path id="Path_717" data-name="Path 717" d="M443.009,261.6h.34v.293h-.34Zm-.009.415h.349v1.605H443Z" transform="translate(-411.532 -239.649)" fill="#fff"/>
  <g id="Group_3023" data-name="Group 3023" transform="translate(32.913 22.367)">
    <path id="Path_718" data-name="Path 718" d="M459.008,266.784c.17,0,.274-.094.274-.227h0c0-.151-.1-.227-.274-.227h-.359v.463h.359ZM458.3,266h.736a.624.624,0,0,1,.463.161.484.484,0,0,1,.142.368h0a.51.51,0,0,1-.34.5l.387.576h-.415l-.34-.51h-.283v.51H458.3Z" transform="translate(-458.3 -266)" fill="#fff"/>
  </g>
  <path id="Path_719" data-name="Path 719" d="M475.367,266.844l-.217-.519-.217.519ZM475,265.9h.321l.689,1.614h-.368l-.151-.359h-.68l-.151.359H474.3Z" transform="translate(-439.877 -243.543)" fill="#fff"/>
  <g id="Group_3024" data-name="Group 3024" transform="translate(36.378 22.367)">
    <path id="Path_720" data-name="Path 720" d="M495.359,266.321v.963h.274a.456.456,0,0,0,.482-.482h0a.461.461,0,0,0-.482-.482ZM495,266h.623a.8.8,0,0,1,.85.8h0a.8.8,0,0,1-.85.8H495Z" transform="translate(-495 -266)" fill="#fff"/>
  </g>
  <path id="Path_721" data-name="Path 721" d="M512.276,266.844l-.217-.519-.217.519Zm-.378-.944h.321l.689,1.614h-.368l-.151-.359h-.68l-.151.359H511.2Z" transform="translate(-473.293 -243.543)" fill="#fff"/>
  <g id="Group_3025" data-name="Group 3025" transform="translate(39.871 22.367)">
    <path id="Path_722" data-name="Path 722" d="M532.708,266.784c.17,0,.274-.094.274-.227h0c0-.151-.1-.227-.274-.227h-.349v.463h.349ZM532,266h.736a.664.664,0,0,1,.472.161.521.521,0,0,1,.142.368h0a.509.509,0,0,1-.34.5l.387.576h-.415l-.34-.51h-.274v.51H532Z" transform="translate(-532 -266)" fill="#fff"/>
  </g>
</svg>
