<svg id="EHSIM_Logo" xmlns="http://www.w3.org/2000/svg" width="42.834" height="38" viewBox="0 0 42.834 38">
  <path id="Path_690" data-name="Path 690" d="M540.339,163.529h17.568c.036-.257.071-.507.114-.793h-6.415c-.086-.55-.086-.564.4-.672q2.733-.6,5.472-1.186c.693-.15,1.393-.271,2.086-.422a.642.642,0,0,0,.343-.214c.422-.536.843-1.079,1.236-1.636a1.125,1.125,0,0,0,.121-.543c.064-.779.107-1.565.164-2.343.036-.493.093-.986.143-1.493.257-.057.4-.057.422.271.071,1.215.186,2.436.279,3.651a.994.994,0,0,0,.307.636,7.586,7.586,0,0,1,.864,1.207,1,1,0,0,0,.714.5c2.529.529,5.058,1.086,7.58,1.636.379.086.186.364.229.607h-6.451c.036.279.064.522.1.793h17.532l.021.086q-4.061,1.693-8.109,3.372c2.1,3.786,1.936,7.38-1.279,10.373-2.979,2.772-6.4,2.743-9.909.729-.686,1.45-1.379,2.915-2.108,4.451-.329-.693-.629-1.315-.922-1.943-.336-.722-.672-1.443-1.007-2.158-.186-.4-.193-.407-.55-.179a7.285,7.285,0,0,1-2.758,1.072,7.968,7.968,0,0,1-9.359-8.623,7.4,7.4,0,0,1,1.15-3.365c.164-.264.143-.364-.15-.486-2.493-1.029-4.979-2.072-7.473-3.108-.121-.05-.236-.1-.35-.15A.088.088,0,0,1,540.339,163.529Zm12.252,9.666c.764-.507,1.479-.993,2.208-1.457.214-.136.236-.264.093-.457-.171-.243-.329-.5-.493-.743-.343-.507-.686-1.014-1.043-1.55a3.154,3.154,0,0,0-.922,4.186c-.143.1-.264.186-.422.3a3.745,3.745,0,0,1,.693-4.679c-.157-.079-.264-.143-.379-.193-.786-.329-1.579-.65-2.365-.993a.342.342,0,0,0-.514.157,6.675,6.675,0,0,0-1.05,4.729,6.533,6.533,0,0,0,3.472,4.944,6.449,6.449,0,0,0,3.879.764,6.829,6.829,0,0,0,3.051-1.093c.107-.064.25-.229.229-.307a6.347,6.347,0,0,0-.386-.864,5.789,5.789,0,0,1-4.472,1.222,5.654,5.654,0,0,1-3.879-2.45c.572-.379,1.122-.75,1.686-1.129.071.079.129.143.179.207a3.625,3.625,0,0,0,5.172.55c.464-.393.479-.536.043-1.014a3.142,3.142,0,0,1-2.393,1.143A2.922,2.922,0,0,1,552.591,173.195Zm13.531.121c-.422.543-.429.657.064,1.043a3.554,3.554,0,0,0,3.786.507,3.776,3.776,0,0,0,1.55-1.272c.3.2.579.379.857.564s.536.364.807.55a5.549,5.549,0,0,1-2.722,2.165,5.767,5.767,0,0,1-5.6-.929c-.114.236-.2.436-.3.614-.143.257-.086.414.171.572a6.724,6.724,0,0,0,4.544,1.05,6.739,6.739,0,0,0,5.837-7.644,6.8,6.8,0,0,0-1.093-2.836.272.272,0,0,0-.407-.121c-.593.264-1.207.5-1.807.75-.329.136-.657.293-1.036.457a3.876,3.876,0,0,1,1.2,2.222,3.646,3.646,0,0,1-.493,2.443c-.157-.107-.286-.2-.414-.286a3.06,3.06,0,0,0-.957-4.151c-.55.836-1.1,1.672-1.672,2.522.85.564,1.657,1.1,2.472,1.643a2.747,2.747,0,0,1-1.836,1.229A2.961,2.961,0,0,1,566.122,173.316Z" transform="translate(-540.334 -154.198)" fill="#fff"/>
  <path id="Path_691" data-name="Path 691" d="M925.022,590.554q-.761,2.25-1.515,4.5l-.136-.021-1.543-4.479c-.043.007-.086.007-.129.014-.079.422-.164.843-.243,1.265-.171.95-.329,1.907-.522,2.858a.457.457,0,0,1-.3.257,2.154,2.154,0,0,1-.536.014c.086-.507.157-.986.243-1.45.321-1.715.65-3.436.986-5.151.021-.114.136-.207.207-.307.093.093.243.172.279.279.486,1.436.95,2.879,1.422,4.315.043.129.1.257.193.471a2.478,2.478,0,0,0,.171-.35c.443-1.472.879-2.951,1.315-4.422.064-.221.157-.372.472-.257.457,2.258.922,4.544,1.379,6.808-.071.036-.093.057-.114.057-.657.036-.672.036-.793-.6-.214-1.115-.4-2.229-.607-3.344-.029-.143-.086-.286-.129-.429A.179.179,0,0,0,925.022,590.554Z" transform="translate(-892.969 -557.055)" fill="#fff"/>
  <path id="Path_692" data-name="Path 692" d="M734.8,594.994v-6.887h.872v2.729c.129.014.236.036.336.036.822,0,1.643-.014,2.458,0,.307.007.386-.121.379-.4-.014-.779-.007-1.565-.007-2.372h.843v6.387c0,.507,0,.507-.493.5h-.329c-.007-.143-.021-.264-.021-.393,0-.879-.007-1.758,0-2.643.007-.279-.064-.407-.379-.4-.914.021-1.822.007-2.786.007v.736c0,.786-.014,1.572.007,2.358.007.271-.086.364-.35.336C735.172,594.98,735.007,594.994,734.8,594.994Z" transform="translate(-720.907 -557.101)" fill="#fff"/>
  <path id="Path_693" data-name="Path 693" d="M665.908,594.223v.729H661.9V588.1h3.994v.743c-.936,0-1.857.014-2.779-.007-.307-.007-.429.079-.407.4a12.837,12.837,0,0,1,0,1.286c-.007.264.086.357.35.357.629-.014,1.257-.007,1.907-.007v.693c-.614,0-1.229.014-1.836-.007-.329-.014-.436.093-.422.429.021.629.014,1.265,0,1.893-.007.264.079.35.343.35C663.993,594.215,664.936,594.223,665.908,594.223Z" transform="translate(-653.215 -557.101)" fill="#fff"/>
  <path id="Path_694" data-name="Path 694" d="M822.863,586.549c-.35-.1-.664-.214-.986-.286a1.078,1.078,0,0,0-1.343.65,1.181,1.181,0,0,0,.607,1.443c.379.2.764.372,1.15.557a1.956,1.956,0,0,1,1.122,2.329,2,2,0,0,1-1.95,1.422,3.318,3.318,0,0,1-1.465-.2c-.279-.129-.371-.25-.214-.529a1.554,1.554,0,0,0,.129-.321c.536.1,1.029.236,1.536.279a1.092,1.092,0,0,0,1.115-.764,1.259,1.259,0,0,0-.572-1.407c-.436-.236-.879-.457-1.329-.679a1.826,1.826,0,0,1-1.065-1.786,1.7,1.7,0,0,1,1.365-1.65,3.21,3.21,0,0,1,1.815.093c.279.086.35.243.214.507C822.942,586.313,822.913,586.427,822.863,586.549Z" transform="translate(-799.647 -554.7)" fill="#fff"/>
  <path id="Path_695" data-name="Path 695" d="M892.424,588.1h.893v.379c0,2.043-.007,4.094.007,6.137,0,.286-.064.393-.371.386-.629-.021-.529.021-.529-.543V588.1Z" transform="translate(-867.265 -557.101)" fill="#fff"/>
  <path id="Path_696" data-name="Path 696" d="M892.435,564.193a.512.512,0,0,1-.514.514.552.552,0,0,1-.529-.471.538.538,0,0,1,.5-.536A.529.529,0,0,1,892.435,564.193Z" transform="translate(-866.311 -534.444)" fill="#fff"/>
</svg>
