<svg id="STM_Logo" xmlns="http://www.w3.org/2000/svg" width="82.584" height="16" viewBox="0 0 82.584 16">
  <path id="Path_787" data-name="Path 787" d="M421.53,88.053a.79.79,0,0,1-.83-.812v-1.55h.351v1.532a.48.48,0,1,0,.96,0V85.691h.351v1.55a.77.77,0,0,1-.83.812m-.5-2.953h.3v.351h-.3Zm.7,0h.3v.351h-.3Z" transform="translate(-356.7 -83.31)" fill="#fff"/>
  <path id="Path_788" data-name="Path 788" d="M434.192,90.725V89.71h-.941v1.015H432.9V88.4h.351v1h.941v-1h.351v2.325Z" transform="translate(-366.649 -86.001)" fill="#fff"/>
  <path id="Path_789" data-name="Path 789" d="M445.1,90.725V88.4h1.495v.314h-1.144V89.4h.978v.314h-.978v.7h1.144v.314Z" transform="translate(-376.597 -86.001)" fill="#fff"/>
  <path id="Path_790" data-name="Path 790" d="M457.239,90.725l-1.089-1.642v1.642H455.8V88.4h.332l1.07,1.624V88.4h.351v2.325Z" transform="translate(-385.323 -86.001)" fill="#fff"/>
  <path id="Path_791" data-name="Path 791" d="M470.021,90.5a.852.852,0,0,1-.609.221H468.6V88.4h.812a.852.852,0,0,1,.609.221,1.178,1.178,0,0,1,.24.923,1.245,1.245,0,0,1-.24.96m-.24-1.642a.477.477,0,0,0-.388-.166h-.424v1.7h.424a.477.477,0,0,0,.388-.166c.129-.129.129-.388.129-.7a1,1,0,0,0-.129-.664" transform="translate(-395.76 -86.001)" fill="#fff"/>
  <path id="Path_792" data-name="Path 792" d="M480.4,85.791h.351v2.325H480.4Zm.037-.591h.314v.314h-.314Z" transform="translate(-405.383 -83.391)" fill="#fff"/>
  <path id="Path_793" data-name="Path 793" d="M485.33,90.662a1.022,1.022,0,0,1-.83-.314l.24-.24a.765.765,0,0,0,.591.221c.3,0,.48-.129.48-.351a.319.319,0,0,0-.092-.24c-.055-.055-.111-.074-.258-.092l-.277-.037a.81.81,0,0,1-.443-.185.6.6,0,0,1-.166-.443.687.687,0,0,1,.775-.683.962.962,0,0,1,.72.258l-.221.221a.741.741,0,0,0-.517-.185.376.376,0,0,0-.424.369.248.248,0,0,0,.092.221.479.479,0,0,0,.258.111l.258.037a1.009,1.009,0,0,1,.443.166.6.6,0,0,1,.185.48c.037.424-.314.683-.812.683" transform="translate(-408.726 -85.919)" fill="#fff"/>
  <path id="Path_794" data-name="Path 794" d="M496.1,90.725V88.4h.351v2.012h1.126v.314Z" transform="translate(-418.185 -86.001)" fill="#fff"/>
  <path id="Path_795" data-name="Path 795" d="M506.3,85.791h.351v2.325H506.3Zm.018-.591h.314v.314h-.314Z" transform="translate(-426.503 -83.391)" fill="#fff"/>
  <path id="Path_796" data-name="Path 796" d="M512.9,90.725l-.646-1.144-.406.461v.683H511.5V88.4h.351v1.163l.96-1.163h.443l-.757.9.831,1.421Z" transform="translate(-430.743 -86.001)" fill="#fff"/>
  <path id="Path_797" data-name="Path 797" d="M406.378,112.914v2.012h-.351v-2.012H405.4V112.6h1.624v.314Z" transform="translate(-344.224 -105.735)" fill="#fff"/>
  <path id="Path_798" data-name="Path 798" d="M416.4,114.925V112.6h1.495v.314h-1.144v.683h.978v.314h-.978v.7h1.144v.314Z" transform="translate(-353.194 -105.735)" fill="#fff"/>
  <path id="Path_799" data-name="Path 799" d="M428.5,114.925l-.664-1.144-.388.48v.664H427.1V112.6h.351v1.181l.96-1.181h.424l-.757.923.849,1.4Z" transform="translate(-361.919 -105.735)" fill="#fff"/>
  <path id="Path_800" data-name="Path 800" d="M440.221,114.925l-1.07-1.642v1.642H438.8V112.6h.314l1.089,1.642V112.6h.351v2.325Z" transform="translate(-371.46 -105.735)" fill="#fff"/>
  <path id="Path_801" data-name="Path 801" d="M452.639,114.622a.82.82,0,0,1-.609.24.9.9,0,0,1-.609-.24c-.221-.221-.221-.48-.221-.941,0-.443,0-.7.221-.941a.821.821,0,0,1,.609-.24.865.865,0,0,1,.609.24c.221.221.221.48.221.941s0,.72-.221.941m-.277-1.661a.444.444,0,0,0-.351-.148.5.5,0,0,0-.351.148c-.111.129-.129.258-.129.72s.018.591.129.72a.444.444,0,0,0,.351.148.5.5,0,0,0,.351-.148c.111-.129.129-.258.129-.72.018-.461,0-.591-.129-.72" transform="translate(-381.571 -105.653)" fill="#fff"/>
  <path id="Path_802" data-name="Path 802" d="M463,114.925V112.6h.369v2.012h1.107v.314Z" transform="translate(-391.194 -105.735)" fill="#fff"/>
  <path id="Path_803" data-name="Path 803" d="M473.839,114.622a.82.82,0,0,1-.609.24.865.865,0,0,1-.609-.24c-.221-.221-.221-.48-.221-.941,0-.443,0-.7.221-.941a.821.821,0,0,1,.609-.24.865.865,0,0,1,.609.24c.221.221.221.48.221.941s0,.72-.221.941m-.277-1.661a.444.444,0,0,0-.351-.148.5.5,0,0,0-.351.148c-.111.129-.129.258-.129.72s.018.591.129.72a.444.444,0,0,0,.351.148.5.5,0,0,0,.351-.148c.111-.129.129-.258.129-.72.018-.461,0-.591-.129-.72" transform="translate(-398.859 -105.653)" fill="#fff"/>
  <path id="Path_804" data-name="Path 804" d="M482.772,114.944a.794.794,0,0,1-.572-.221l.24-.24a.435.435,0,0,0,.332.148.408.408,0,0,0,.424-.461V112.6h.351v1.587a.721.721,0,0,1-.775.757" transform="translate(-406.85 -105.735)" fill="#fff"/>
  <path id="Path_805" data-name="Path 805" d="M492.6,109.991h.351v2.325H492.6Zm.018-.591h.314v.314h-.314Z" transform="translate(-415.331 -103.125)" fill="#fff"/>
  <path id="Path_806" data-name="Path 806" d="M407.921,139a.853.853,0,0,1-.609.221H406.5V136.9h.812a.853.853,0,0,1,.609.221,1.178,1.178,0,0,1,.24.923,1.348,1.348,0,0,1-.24.96m-.24-1.642a.477.477,0,0,0-.388-.166h-.424v1.7h.424a.477.477,0,0,0,.388-.166c.129-.129.129-.388.129-.7-.018-.314-.018-.535-.129-.664" transform="translate(-345.121 -125.551)" fill="#fff"/>
  <path id="Path_807" data-name="Path 807" d="M418.224,139.225l-.166-.461h-.923l-.166.461H416.6l.849-2.325h.277l.849,2.325Zm-.628-1.809-.369,1.033h.72Z" transform="translate(-353.357 -125.551)" fill="#fff"/>
  <path id="Path_808" data-name="Path 808" d="M430.639,139.144l-1.089-1.642v1.642H429.2V136.8h.332l1.07,1.642V136.8h.351v2.344Z" transform="translate(-363.631 -125.469)" fill="#fff"/>
  <rect id="Rectangle_956" data-name="Rectangle 956" width="0.351" height="2.325" transform="translate(67.931 11.331)" fill="#fff"/>
  <path id="Path_809" data-name="Path 809" d="M446.93,139.162a1.022,1.022,0,0,1-.83-.314l.24-.24a.765.765,0,0,0,.591.221c.3,0,.48-.129.48-.351a.319.319,0,0,0-.092-.24c-.055-.055-.111-.074-.258-.092l-.277-.037a.81.81,0,0,1-.443-.185.6.6,0,0,1-.166-.443.687.687,0,0,1,.775-.683.962.962,0,0,1,.72.258l-.221.221a.742.742,0,0,0-.517-.185.376.376,0,0,0-.424.369.248.248,0,0,0,.092.221.479.479,0,0,0,.258.111l.258.037a1.009,1.009,0,0,1,.443.166.6.6,0,0,1,.185.48c.018.424-.332.683-.812.683m.092.664h-.332l.222-.48h.277Z" transform="translate(-377.413 -125.469)" fill="#fff"/>
  <path id="Path_810" data-name="Path 810" d="M459.4,139.144v-1.569l-.535,1.144H458.6l-.554-1.144v1.569H457.7V136.8h.351l.683,1.458.664-1.458h.351v2.344Z" transform="translate(-386.872 -125.469)" fill="#fff"/>
  <path id="Path_811" data-name="Path 811" d="M472.224,139.225l-.166-.461h-.923l-.166.461H470.6l.849-2.325h.277l.849,2.325Zm-.609-1.809-.369,1.033h.72Z" transform="translate(-397.391 -125.551)" fill="#fff"/>
  <path id="Path_812" data-name="Path 812" d="M484.639,139.144l-1.089-1.642v1.642H483.2V136.8h.332l1.07,1.642V136.8h.351v2.344Z" transform="translate(-407.666 -125.469)" fill="#fff"/>
  <path id="Path_813" data-name="Path 813" d="M496,139.144V136.8h.351v2.03h1.126v.314Z" transform="translate(-418.104 -125.469)" fill="#fff"/>
  <rect id="Rectangle_957" data-name="Rectangle 957" width="0.351" height="2.325" transform="translate(79.779 11.331)" fill="#fff"/>
  <path id="Path_814" data-name="Path 814" d="M512.8,139.144l-.646-1.163-.406.48v.683H511.4V136.8h.351v1.181l.96-1.181h.424l-.757.923.849,1.421Z" transform="translate(-430.662 -125.469)" fill="#fff"/>
  <rect id="Rectangle_958" data-name="Rectangle 958" width="0.96" height="15.852" transform="translate(57.153 0.148)" fill="#fff"/>
  <path id="Path_815" data-name="Path 815" d="M186.238,96.027a6.476,6.476,0,0,1-5.038-1.753l2.085-2.085a4.354,4.354,0,0,0,2.971.941c1.292,0,1.9-.424,1.9-1.2a1.175,1.175,0,0,0-.258-.794,1.475,1.475,0,0,0-.886-.351l-1.606-.221a4.458,4.458,0,0,1-2.676-1.181,3.709,3.709,0,0,1-.923-2.676c0-2.436,1.827-4.208,4.853-4.208a5.9,5.9,0,0,1,4.484,1.587L189.1,86.136a3.274,3.274,0,0,0-2.528-.794c-1.144,0-1.606.646-1.606,1.236a.865.865,0,0,0,.258.609,1.487,1.487,0,0,0,.923.388l1.606.221a4.429,4.429,0,0,1,2.621,1.107,3.9,3.9,0,0,1,1,2.916c0,2.731-2.325,4.208-5.13,4.208" transform="translate(-161.398 -81.19)" fill="#fff"/>
  <path id="Path_816" data-name="Path 816" d="M246.033,86.016v10.39h-3.266V86.016H239.5V83.1h9.8v2.916Z" transform="translate(-208.939 -81.679)" fill="#fff"/>
  <path id="Path_817" data-name="Path 817" d="M307.835,96.406V90.039l-1.882,3.285-1.089,1.938-1-1.938-1.9-3.285v6.367H298.7V83.1h3.211l2.99,5.869,2.99-5.869h3.23V96.406Z" transform="translate(-257.214 -81.679)" fill="#fff"/>
  <path id="Path_818" data-name="Path 818" d="M125.9,85.576l8.729,5.038L125.9,75.5Z" transform="translate(-116.304 -75.482)" fill="#fff" fill-rule="evenodd"/>
  <path id="Path_819" data-name="Path 819" d="M93.639,139.138,84.91,134.1l-8.71,5.038Z" transform="translate(-75.776 -123.267)" fill="#fff" fill-rule="evenodd"/>
  <path id="Path_820" data-name="Path 820" d="M73.9,90.514l8.71-5.038V75.4Z" transform="translate(-73.9 -75.4)" fill="#fff" fill-rule="evenodd"/>
  <path id="Path_821" data-name="Path 821" d="M408.2,90.725v-1.55l-.535,1.126H407.4l-.554-1.126v1.55H406.5V88.4h.351l.683,1.439L408.2,88.4h.351v2.325Z" transform="translate(-345.121 -86.001)" fill="#fff"/>
</svg>
