<?xml version="1.0" encoding="UTF-8"?>
<!DOCTYPE svg PUBLIC "-//W3C//DTD SVG 1.1//EN" "http://www.w3.org/Graphics/SVG/1.1/DTD/svg11.dtd">
<svg xmlns="http://www.w3.org/2000/svg" version="1.1" width="425px" height="83px" style="shape-rendering:geometricPrecision; text-rendering:geometricPrecision; image-rendering:optimizeQuality; fill-rule:evenodd; clip-rule:evenodd" xmlns:xlink="http://www.w3.org/1999/xlink">
<g><path style="opacity:0.857" fill="#fefffe" d="M -0.5,64.5 C -0.5,63.1667 -0.5,61.8333 -0.5,60.5C 19.9841,49.321 29.9841,31.9876 29.5,8.5C 35.1667,8.5 40.8333,8.5 46.5,8.5C 46.2266,24.8546 51.5599,39.0213 62.5,51C 67.369,53.5966 72.0356,56.4299 76.5,59.5C 73.8217,63.5232 71.655,67.8566 70,72.5C 69.2753,73.0585 68.4419,73.3918 67.5,73.5C 55.733,68.4779 43.3996,65.4779 30.5,64.5C 30.2907,63.914 29.9574,63.414 29.5,63C 30.9542,58.9913 31.6208,54.8247 31.5,50.5C 36.7616,50.1953 41.9283,50.5286 47,51.5C 44.8202,47.4607 42.8202,43.1273 41,38.5C 40.2801,36.7448 39.1134,35.9115 37.5,36C 31.6399,50.0686 23.3066,62.402 12.5,73C 11.5,73.6667 10.5,73.6667 9.5,73C 6.00033,70.3314 2.66699,67.498 -0.5,64.5 Z"/></g>
<g><path style="opacity:0.801" fill="#fefffe" d="M 248.5,16.5 C 255.479,16.3283 261.145,18.8283 265.5,24C 264.365,26.4412 262.865,28.6079 261,30.5C 249.729,24.3958 242.562,27.3958 239.5,39.5C 240.7,48.4332 245.7,51.9332 254.5,50C 255.833,48.3333 257.167,46.6667 258.5,45C 255.329,42.6586 252.329,40.1586 249.5,37.5C 256.134,36.5033 262.8,36.17 269.5,36.5C 268.081,58.5489 257.081,65.3822 236.5,57C 228.812,49.5887 226.645,40.7553 230,30.5C 233.764,22.559 239.931,17.8924 248.5,16.5 Z"/></g>
<g><path style="opacity:0.763" fill="#fefffe" d="M 103.5,17.5 C 106.85,17.335 110.183,17.5017 113.5,18C 116.189,23.0628 118.689,28.2295 121,33.5C 123.408,40.6403 126.074,47.6403 129,54.5C 129.667,56.1667 129.667,57.8333 129,59.5C 125.927,60.6168 122.76,60.7835 119.5,60C 117.47,56.4109 116.137,52.5776 115.5,48.5C 111.167,48.5 106.833,48.5 102.5,48.5C 102.208,52.2073 101.208,55.7073 99.5,59C 96.3117,60.3158 92.9783,60.8158 89.5,60.5C 94.1533,46.2058 98.82,31.8724 103.5,17.5 Z M 108.5,30.5 C 109.564,33.1864 110.564,36.0198 111.5,39C 109.696,41.2983 107.363,41.965 104.5,41C 106.712,37.8664 108.046,34.3664 108.5,30.5 Z"/></g>
<g><path style="opacity:0.775" fill="#fefffe" d="M 145.5,17.5 C 152.375,16.5235 158.208,18.5235 163,23.5C 164.033,26.2175 163.2,28.0508 160.5,29C 156.767,28.8211 153.1,27.9877 149.5,26.5C 145.85,27.7581 145.183,29.7581 147.5,32.5C 152.996,34.7175 158.329,37.2175 163.5,40C 168.621,48.1815 166.955,54.5148 158.5,59C 149.112,62.2851 140.945,60.4518 134,53.5C 133.235,49.5787 134.902,47.2454 139,46.5C 142.986,50.6058 147.819,52.1058 153.5,51C 155.922,48.888 155.922,46.888 153.5,45C 145.897,43.9204 139.73,40.4204 135,34.5C 134.183,31.0357 134.517,27.7024 136,24.5C 138.825,21.524 141.992,19.1907 145.5,17.5 Z"/></g>
<g><path style="opacity:0.763" fill="#fefffe" d="M 173.5,17.5 C 176.777,17.2161 179.943,17.5495 183,18.5C 183.833,32.1788 183.666,45.8455 182.5,59.5C 179.579,60.4066 176.579,60.7399 173.5,60.5C 172.873,50.0736 173.54,39.9069 175.5,30C 173.611,26.1638 172.945,21.9971 173.5,17.5 Z"/></g>
<g><path style="opacity:0.775" fill="#fefffe" d="M 202.5,17.5 C 209.767,16.2222 215.934,18.2222 221,23.5C 222.033,26.2175 221.2,28.0508 218.5,29C 216.833,29.6667 215.167,29.6667 213.5,29C 210.048,25.9488 206.714,25.9488 203.5,29C 203.833,30 204.167,31 204.5,32C 209.167,34 213.833,36 218.5,38C 226.476,44.6208 226.476,51.2875 218.5,58C 211.194,61.2774 203.86,61.2774 196.5,58C 190.117,54.254 189.95,50.4206 196,46.5C 198.752,47.5863 201.252,49.0863 203.5,51C 206.167,51.6667 208.833,51.6667 211.5,51C 213.922,48.888 213.922,46.888 211.5,45C 203.373,44.095 197.206,40.2617 193,33.5C 192.305,30.0037 192.805,26.6703 194.5,23.5C 197.235,21.4793 199.901,19.4793 202.5,17.5 Z"/></g>
<g><path style="opacity:0.812" fill="#fefffe" d="M 272.5,17.5 C 276.167,17.5 279.833,17.5 283.5,17.5C 283.334,26.8393 283.5,36.1726 284,45.5C 285.552,50.4119 288.718,51.7453 293.5,49.5C 294.192,48.9747 294.692,48.3081 295,47.5C 295.333,37.8333 295.667,28.1667 296,18.5C 299.394,17.5442 302.894,17.2108 306.5,17.5C 306.667,28.505 306.5,39.505 306,50.5C 302.945,57.7807 297.445,61.1141 289.5,60.5C 281.855,60.5984 276.355,57.2651 273,50.5C 272.5,39.505 272.333,28.505 272.5,17.5 Z"/></g>
<g><path style="opacity:0.803" fill="#fefffe" d="M 322.5,17.5 C 326.767,17.203 330.934,17.5363 335,18.5C 340.334,32.3368 345.168,46.3368 349.5,60.5C 345.486,60.6655 341.486,60.4988 337.5,60C 336.347,57.3843 335.347,54.7176 334.5,52C 330.179,51.501 325.846,51.3343 321.5,51.5C 321.38,54.4802 320.713,57.3135 319.5,60C 315.459,60.8265 311.459,60.6599 307.5,59.5C 312.509,45.4716 317.509,31.4716 322.5,17.5 Z M 327.5,33.5 C 329.383,35.7634 330.716,38.4301 331.5,41.5C 329.235,42.6474 326.902,42.8141 324.5,42C 326.585,39.5806 327.585,36.7472 327.5,33.5 Z"/></g>
<g><path style="opacity:0.805" fill="#fefffe" d="M 351.5,17.5 C 358.508,17.3337 365.508,17.5004 372.5,18C 381.759,20.8163 385.259,26.983 383,36.5C 381.75,39.9162 379.583,42.5828 376.5,44.5C 379.898,49.2379 382.898,54.2379 385.5,59.5C 381.167,60.8333 376.833,60.8333 372.5,59.5C 369.906,54.638 367.073,49.9713 364,45.5C 363.5,45.6667 363,45.8333 362.5,46C 363.632,50.4132 363.799,54.9132 363,59.5C 359.27,60.4601 355.437,60.7935 351.5,60.5C 351.5,46.1667 351.5,31.8333 351.5,17.5 Z M 362.5,29.5 C 365.355,28.1968 368.355,28.1968 371.5,29.5C 372.953,31.6439 372.62,33.4773 370.5,35C 367.923,36.2504 365.257,36.5837 362.5,36C 363.811,33.7265 363.811,31.5598 362.5,29.5 Z"/></g>
<g><path style="opacity:0.808" fill="#fefffe" d="M 424.5,30.5 C 424.5,36.1667 424.5,41.8333 424.5,47.5C 421.689,52.4759 417.689,56.3093 412.5,59C 404.561,60.3215 396.561,60.8215 388.5,60.5C 388.5,46.1667 388.5,31.8333 388.5,17.5C 396.585,17.0989 404.585,17.5989 412.5,19C 417.689,21.6907 421.689,25.5241 424.5,30.5 Z M 399.5,28.5 C 408.916,26.2565 413.582,29.9232 413.5,39.5C 412.701,47.9156 408.034,51.5822 399.5,50.5C 399.5,43.1667 399.5,35.8333 399.5,28.5 Z"/></g>
</svg>
