<svg xmlns="http://www.w3.org/2000/svg" width="90.695" height="28" viewBox="0 0 90.695 28">
  <g id="teknohab-67" transform="translate(-93.176 -82.3)">
    <path id="Path_842" data-name="Path 842" d="M381.042,145.377c2.055-2.016,4.136-4.006,6.138-6.073,1.222-1.262,2.315-2.627,3.446-3.967a5.521,5.521,0,0,0,.624-.988c.39-.741.39-1.21-.247-1.743a37.332,37.332,0,0,0-4.188-3.264c-3.433-2.146-6.945-4.162-10.43-6.229a.568.568,0,0,1-.286-.312c.208.065.416.117.611.182a133,133,0,0,1,14.267,5.774,33.54,33.54,0,0,1,4.5,2.705c1.522,1.066,1.626,2.055.312,3.381a34.349,34.349,0,0,1-4.591,4.006c-3.277,2.315-6.685,4.461-10.04,6.685Z" transform="translate(-246.129 -35.233)" fill="#fff"/>
    <path id="Path_843" data-name="Path 843" d="M716.376,171.322a3.677,3.677,0,0,1,.52,3.9,1.989,1.989,0,0,1-1.756.832c-2.8.052-5.592.026-8.375.039-.494,0-.468-.338-.468-.676v-5.982c0-.624.026-1.261-.013-1.886-.026-.559.156-.767.728-.754,2.484.026,4.981,0,7.478.013.949.013,1.9.091,2.38,1.105A3.376,3.376,0,0,1,716.376,171.322Zm-4.695.871h0c-.884,0-1.769-.026-2.653.013-.2.013-.52.169-.533.286a6.842,6.842,0,0,0,0,1.548c.013.1.273.286.416.286,1.808.013,3.628.026,5.436-.013.715-.013.819-.273.806-1.183-.013-.611-.247-.936-.884-.936C713.411,172.206,712.539,172.193,711.681,172.193Zm-.1-1.6h2.666a.683.683,0,0,0,.78-.741c.052-1.027-.143-1.262-1.209-1.275-1.327-.013-2.64-.013-3.967,0-1.561.026-1.4-.312-1.418,1.483,0,.39.143.546.533.533C709.847,170.581,710.706,170.594,711.577,170.594Z" transform="translate(-533.371 -73.507)" fill="#fff"/>
    <path id="Path_844" data-name="Path 844" d="M546.463,176.142v-2.627c0-.884,0-.884-.9-.884-1.665,0-3.342.013-5.007-.013-.546-.013-.728.182-.7.715.039.78-.013,1.561.013,2.341.013.442-.169.624-.611.611-1.795-.039-1.6.234-1.6-1.509-.013-2.3,0-4.591,0-6.893,0-.871.026-.884.858-.884,1.522.013,1.34-.169,1.353,1.353,0,.624.013,1.262,0,1.886-.013.364.143.507.507.507,1.86-.013,3.732-.013,5.592,0,.416,0,.52-.208.507-.572-.013-.819.013-1.652-.013-2.471-.013-.52.156-.741.7-.715,1.639.052,1.5-.234,1.509,1.483,0,1.327.039,2.64-.013,3.967a2.964,2.964,0,0,1-.39,1.327c-.468.845-1.014,1.639-1.535,2.458C546.632,176.194,546.554,176.168,546.463,176.142Z" transform="translate(-386.671 -73.671)" fill="#fff"/>
    <path id="Path_845" data-name="Path 845" d="M611.8,174.481c.1-.2.2-.377.3-.559q2.4-3.824,4.812-7.647c1.014-1.6,2.445-1.6,3.472,0,.975,1.535,1.925,3.1,2.913,4.617a2.638,2.638,0,0,1,.481,1.639c-.039.468.013.949-.013,1.431a2.314,2.314,0,0,1-.221.611,2.522,2.522,0,0,1-.663-.377c-.3-.364-.481-.832-.793-1.183a1.315,1.315,0,0,0-.819-.481q-2.634-.059-5.267,0a1.642,1.642,0,0,0-.78.416,2.046,2.046,0,0,0-.312.481C614.115,174.663,613.361,174.923,611.8,174.481Zm8.909-3.719c-.728-1.183-1.379-2.224-2.094-3.407-.741,1.209-1.392,2.276-2.081,3.407Z" transform="translate(-451.176 -72.01)" fill="#fff"/>
    <path id="Path_846" data-name="Path 846" d="M171.27,186.01h-3.056c-.286,0-.65-.1-.663.377-.013.4.091.754.546.832a6.214,6.214,0,0,0,1.092.1c1.079.013,2.172.026,3.251,0,.6-.026.676.3.663.767-.013.442.052.9-.637.871-1.639-.052-3.29,0-4.929-.143a2.145,2.145,0,0,1-2.094-2.25,23.512,23.512,0,0,1,.078-3.173,1.74,1.74,0,0,1,1.678-1.7,57.1,57.1,0,0,1,6.151-.039c1.2.065,1.678.78,1.7,1.99.013.559-.013,1.131.013,1.691.026.494-.156.7-.676.689C173.351,185.984,172.311,186.01,171.27,186.01Zm-1.027-1.379c.676,0,1.34-.013,2.016,0,.416.013.715-.026.7-.572-.013-.507-.13-.845-.715-.845-.845,0-1.691-.013-2.523,0a12.23,12.23,0,0,0-1.548.052c-.546.078-.611.533-.6.988.026.494.4.351.676.364C168.89,184.644,169.567,184.631,170.243,184.631Z" transform="translate(-62.849 -86.374)" fill="#fff"/>
    <path id="Path_847" data-name="Path 847" d="M407.661,180.7c.858.052,1.73.065,2.588.182a2.224,2.224,0,0,1,2.094,2.263,22.578,22.578,0,0,1,0,2.653,2.082,2.082,0,0,1-1.964,2.211,43.953,43.953,0,0,1-5.553,0,1.936,1.936,0,0,1-1.873-1.925,17.815,17.815,0,0,1,.013-3.225A2.1,2.1,0,0,1,404.9,180.9a5.215,5.215,0,0,1,.767-.117c.676-.013,1.34,0,2.016,0A.128.128,0,0,1,407.661,180.7Zm-.065,1.912c-.52,0-1.04-.026-1.561,0a1,1,0,0,0-1.079,1.053,13.557,13.557,0,0,0,0,1.626.96.96,0,0,0,.975,1.014c1.118.039,2.25.039,3.368,0a.92.92,0,0,0,.936-1.027c0-.52.026-1.04,0-1.561-.039-.741-.338-1.04-1.092-1.092C408.637,182.6,408.117,182.612,407.6,182.612Z" transform="translate(-269.433 -85.603)" fill="#fff"/>
    <path id="Path_848" data-name="Path 848" d="M255,165.558c-1.418,1.092-2.822,2.2-4.331,3.368,1.522,1.249,3,2.445,4.474,3.654a1.146,1.146,0,0,0-.065.2c-1.092-.13-2.237.39-3.264-.546-.91-.832-1.9-1.574-2.861-2.341-.156-.13-.338-.234-.624-.442,0,.975-.026,1.808.013,2.64.026.546-.2.715-.715.715-1.652-.026-1.4.117-1.418-1.366-.013-2.549.013-5.111-.013-7.66,0-.6.2-.793.78-.78,1.548.039,1.353-.13,1.353,1.366.013,1.17,0,2.341,0,3.511,0,.208.026.416.052.767a34.091,34.091,0,0,0,3.056-2.471c1.053-1.079,2.276-.754,3.472-.78A.519.519,0,0,1,255,165.558Z" transform="translate(-133.123 -70.201)" fill="#fff"/>
    <path id="Path_849" data-name="Path 849" d="M330.982,186.395c0,.676-.013,1.34,0,2.016.013.4-.156.585-.572.585-1.86-.013-1.509.13-1.535-1.431-.013-.936.026-1.86-.026-2.8-.052-1.04-.377-1.34-1.4-1.353q-1.268-.02-2.536,0c-1.027.013-1.379.338-1.4,1.366-.039,1.17-.039,2.341-.013,3.511.013.533-.182.728-.715.715-1.6-.026-1.418.143-1.418-1.366,0-1.262,0-2.51.1-3.758a2.054,2.054,0,0,1,2.081-2.172,39.161,39.161,0,0,1,5.241,0c1.327.091,1.938.832,2.094,2.172.091.832.091,1.691.13,2.523C331.008,186.395,330.995,186.395,330.982,186.395Z" transform="translate(-198.501 -86.408)" fill="#fff"/>
    <path id="Path_850" data-name="Path 850" d="M98.1,166.709c1.4,0,2.822.013,4.227-.013.546-.013.754.2.7.715a2.934,2.934,0,0,0,0,.585c.026.416-.169.585-.572.585-.845-.013-1.691.026-2.536-.013-.533-.026-.728.169-.715.715.026,1.977-.013,3.941.026,5.917.013.624-.2.832-.819.819-1.561-.052-1.392.156-1.4-1.392,0-1.782-.013-3.55.013-5.332.013-.533-.182-.728-.715-.715-.819.039-1.652,0-2.471.013-.468.013-.65-.169-.65-.65-.013-1.235-.039-1.235,1.157-1.235Z" transform="translate(0 -73.42)" fill="#fff"/>
    <path id="Path_851" data-name="Path 851" d="M338.948,82.3c.624,1.418,1.652,1.73,3.1,1.222-1.288.793-1.743,1.795-1.053,3.186-.078,0-.143.013-.221.013-.273-.312-.572-.6-.819-.936a.822.822,0,0,0-.988-.377,2.9,2.9,0,0,1-1.261.052c.3-.26.572-.546.884-.78a.87.87,0,0,0,.377-1.053c-.1-.39-.13-.793-.2-1.183A.985.985,0,0,0,338.948,82.3Z" transform="translate(-212.723 0)" fill="#fff"/>
    <path id="Path_852" data-name="Path 852" d="M315.456,128.2a1.6,1.6,0,0,0-1.756-.754,1.48,1.48,0,0,0,.754-1.743,1.634,1.634,0,0,0,1.821.741A1.68,1.68,0,0,0,315.456,128.2Z" transform="translate(-191.845 -37.756)" fill="#fff"/>
    <path id="Path_853" data-name="Path 853" d="M393.81,97.753l-.91-.416c.13-.3.273-.624.4-.936.286.143.611.3.91.442C394.07,97.128,393.94,97.453,393.81,97.753Z" transform="translate(-260.745 -12.266)" fill="#fff"/>
  </g>
</svg>
